M48
; DRILL file {KiCad 9.0.7} date 2026-04-03T15:19:14-0400
; FORMAT={-:-/ absolute / metric / decimal}
; #@! TF.CreationDate,2026-04-03T15:19:14-04:00
; #@! TF.GenerationSoftware,Kicad,Pcbnew,9.0.7
; #@! TF.FileFunction,Plated,1,4,PTH
FMAT,2
METRIC
; #@! TA.AperFunction,Plated,PTH,ViaDrill
T1C0.300
; #@! TA.AperFunction,Plated,PTH,ViaDrill
T2C0.400
; #@! TA.AperFunction,Plated,PTH,ComponentDrill
T3C1.000
; #@! TA.AperFunction,Plated,PTH,ComponentDrill
T4C1.100
; #@! TA.AperFunction,Plated,PTH,ComponentDrill
T5C1.200
; #@! TA.AperFunction,Plated,PTH,ComponentDrill
T6C1.400
%
G90
G05
T1
X120.0Y-112.0
X120.0Y-114.0
X120.0Y-116.0
X120.0Y-118.0
X120.0Y-120.25
X120.0Y-122.0
X120.0Y-124.0
X120.0Y-126.0
X120.0Y-128.0
X120.0Y-130.0
X120.0Y-132.0
X120.0Y-134.0
X120.0Y-136.0
X120.0Y-138.0
X120.0Y-140.0
X120.0Y-142.0
X120.0Y-144.0
X120.0Y-146.0
X120.0Y-148.0
X120.0Y-150.0
X120.0Y-152.0
X120.0Y-154.0
X120.0Y-156.0
X120.0Y-158.0
X120.0Y-160.0
X120.0Y-162.0
X120.0Y-164.0
X120.0Y-166.0
X120.0Y-168.0
X121.0Y-161.75
X121.0Y-164.25
X121.25Y-166.25
X121.5Y-118.0
X121.75Y-122.75
X122.0Y-168.0
X122.25Y-114.75
X122.25Y-159.25
X122.5Y-151.25
X123.5Y-114.75
X124.0Y-168.0
X124.5Y-151.25
X124.75Y-159.5
X125.75Y-124.25
X126.0Y-168.0
X126.25Y-116.5
X126.5Y-151.25
X126.75Y-159.25
X128.0Y-168.0
X129.75Y-164.25
X130.0Y-166.25
X130.0Y-168.0
X131.5Y-150.75
X132.0Y-168.0
X134.0Y-168.0
X135.75Y-116.5
X135.75Y-124.25
X136.0Y-168.0
X138.0Y-168.0
X140.0Y-168.0
X141.5Y-159.0
X141.5Y-166.5
X142.0Y-168.0
X142.5Y-120.25
X144.0Y-168.0
X146.0Y-168.0
X146.526Y-120.5
X146.75Y-111.0
X147.0Y-127.25
X148.0Y-168.0
X148.25Y-114.5
X150.0Y-168.0
X150.25Y-114.5
X150.75Y-164.75
X151.75Y-111.0
X152.0Y-166.25
X152.0Y-168.0
X154.0Y-168.0
X154.25Y-165.25
X156.0Y-168.0
X157.75Y-118.5
X157.75Y-123.75
X158.0Y-168.0
X160.0Y-168.0
X162.0Y-168.0
X164.0Y-168.0
X166.0Y-168.0
X168.0Y-168.0
X170.0Y-168.0
X172.0Y-112.0
X172.0Y-168.0
X172.5Y-130.75
X172.5Y-133.25
X174.0Y-112.0
X174.0Y-114.0
X174.0Y-116.0
X174.0Y-118.0
X174.0Y-120.0
X174.0Y-122.0
X174.0Y-124.0
X174.0Y-126.0
X174.0Y-128.0
X174.0Y-130.0
X174.0Y-132.0
X174.0Y-134.0
X174.0Y-136.0
X174.0Y-138.0
X174.0Y-140.0
X174.0Y-142.0
X174.0Y-144.0
X174.0Y-146.0
X174.0Y-148.0
X174.0Y-150.0
X174.0Y-152.0
X174.0Y-154.0
X174.0Y-156.0
X174.0Y-158.0
X174.0Y-160.0
X174.0Y-162.0
X174.0Y-164.0
X174.0Y-166.0
X174.0Y-168.0
T2
X130.25Y-152.25
X132.75Y-152.25
X134.5Y-155.5
X136.75Y-155.5
X139.0Y-152.25
X151.75Y-120.25
T4
X122.495Y-132.38
X122.495Y-147.62
X125.035Y-132.38
X125.035Y-147.62
X127.575Y-132.38
X127.575Y-147.62
X130.115Y-132.38
X130.115Y-147.62
X132.655Y-132.38
X132.655Y-147.62
X135.195Y-132.38
X135.195Y-147.62
X137.735Y-132.38
X137.735Y-147.62
X140.275Y-132.38
X140.275Y-147.62
X142.815Y-132.38
X142.815Y-147.62
X145.355Y-132.38
X145.355Y-147.62
X147.895Y-132.38
X147.895Y-147.62
X150.435Y-132.38
X150.435Y-147.62
X152.975Y-132.38
X152.975Y-147.62
X155.515Y-132.38
X155.515Y-147.62
X158.055Y-132.38
X158.055Y-147.62
X160.595Y-132.38
X160.595Y-147.62
X163.135Y-132.38
X163.135Y-147.62
X165.675Y-132.38
X165.675Y-147.62
X168.215Y-132.38
X168.215Y-147.62
X170.755Y-132.38
X170.755Y-147.62
T5
X145.735Y-165.718
X148.275Y-165.718
T6
X125.3Y-112.135
X125.3Y-128.365
X131.65Y-112.135
X131.65Y-128.365
X138.0Y-112.135
X138.0Y-128.365
X156.0Y-112.135
X156.0Y-128.365
X162.35Y-112.135
X162.35Y-128.365
X168.7Y-112.135
X168.7Y-128.365
T3
G00X131.007Y-156.25
M15
G01X131.007Y-154.25
M16
G05
G00X134.707Y-152.25
M15
G01X136.707Y-152.25
M16
G05
G00X134.707Y-158.25
M15
G01X136.707Y-158.25
M16
G05
M30
